# xmcd CD database file
#
# Track frame offsets:
#	150
#	29417
#	79882
#	116325
#	163680
#	193867
#	228032
#
# Disc length: 3427 seconds
#
# Revision: 0
# Processed by: cddbd v1.5.2PL0 Copyright (c) Steve Scherf et al.
# Submitted via: CDex 1.70beta2
#
DISCID=4f0d6107
DTITLE=Putte Wickmann  - The Sound of Surprise
DYEAR=1996
DGENRE=Jazz
TTITLE0=Laura
TTITLE1=A Number 
TTITLE2=Willow Weep for Me 
TTITLE3=I've Never Been in Love Before 
TTITLE4=Sous Les Ciels de Paris 
TTITLE5=The Song Is You 
TTITLE6=Autumn Leaves 
EXTD=YEAR: 1996
EXTT0=
EXTT1=
EXTT2=
EXTT3=
EXTT4=
EXTT5=
EXTT6=
PLAYORDER=
